<svg width="410.1875px" height="122px" xmlns="http://www.w3.org/2000/svg" viewBox="44.90625 14 410.1875 122" style="background: rgba(0, 0, 0, 0);" preserveAspectRatio="xMidYMid"><defs><linearGradient id="editing-shiny-gradient" x1="0.04322727117869957" x2="0.9567727288213004" y1="0.2966316784620999" y2="0.7033683215379001" gradientUnits="objectBoundingBox"><stop offset="0.0" stop-color="#ffb200"></stop><stop offset="0.5" stop-color="#e10057"></stop><stop offset="1.0" stop-color="#5A1A80"></stop></linearGradient><linearGradient id="editing-shiny-gradient2" x1="0" x2="0" y1="0" y2="1"><stop offset="0.2" stop-color="#fff" stop-opacity="0.8"></stop><stop offset="0.8" stop-color="#fff" stop-opacity="0"></stop></linearGradient><filter id="editing-shiny2" x="-100%" y="-100%" width="300%" height="300%"><feMorphology operator="erode" radius="2"></feMorphology></filter><filter id="editing-shiny" x="-100%" y="-100%" width="300%" height="300%"><feFlood flood-color="#fff" result="flood"></feFlood><feConvolveMatrix in="SourceGraphic" result="conv" order="8,8" divisor="1" kernelMatrix="0 0 0 0 0 0 0 0 0 0 0 1 1 0 0 0 0 0 0 1 1 0 0 0 0 0 1 0 0 1 0 0 0 0 1 0 0 1 0 0 0 1 0 0 0 0 1 0 0 1 1 0 0 1 1 0 0 0 0 1 1 0 0 0 "></feConvolveMatrix><feOffset dx="0" dy="4" in="conv" result="offset"></feOffset><feComposite operator="in" in="flood" in2="offset" result="comp"></feComposite><feGaussianBlur in="offset" stdDeviation="3" result="shadow"></feGaussianBlur><feColorMatrix in="shadow" type="matrix" values="0.7 0 0 0 0  0 0.7 0 0 0  0 0 0.7 0 0  0 0 0 0.3 0" result="dark-shadow"></feColorMatrix><feOffset dx="0" dy="4" in="dark-shadow" result="offset-shadow"></feOffset><feOffset dx="0" dy="2" in="conv" result="offset-2"></feOffset><feComposite operator="out" in="offset" in2="offset-2" result="edge-diff"></feComposite><feGaussianBlur in="edge-diff" stdDeviation="1" result="edge-blur"></feGaussianBlur><feColorMatrix in="edge-blur" result="edge-shadow" type="matrix" values="0 0 0 0 0  0 0 0 0 0  0 0 0 0 0  0 0 0 0.5 0"></feColorMatrix><feComposite operator="in" in="edge-shadow" in2="offset" result="edge-shadow-in"></feComposite><feOffset dx="0" dy="1" in="edge-shadow-in" result="edge-shadow-final"></feOffset><feMerge result="out"><feMergeNode in="offset-shadow"></feMergeNode><feMergeNode in="comp"></feMergeNode><feMergeNode in="edge-shadow-final"></feMergeNode><feMergeNode in="SourceGraphic"></feMergeNode></feMerge></filter></defs><g filter="url(#editing-shiny)"><g transform="translate(107.1799868941307, 99)"><path d="M27.84-9.86L27.84-9.86L27.84-9.86Q29.06-8.32 29.06-5.34L29.06-5.34L29.06-5.34Q29.06-2.37 26.78-0.54L26.78-0.54L26.78-0.54Q24.51 1.28 20.54 1.28L20.54 1.28L20.54 1.28Q18.24 1.28 14.66 0.77L14.66 0.77L14.66 0.77Q7.62-0.32 5.60-0.32L5.60-0.32L5.60-0.32Q3.58-0.32 2.75-0.22L2.75-0.22L2.75-0.22Q1.92-0.13 0.58 0L0.58 0L8.32-42.24L22.34-42.24L15.94-7.04L15.94-7.04Q16.77-6.91 17.54-6.91L17.54-6.91L19.14-6.91L19.14-6.91Q24.51-6.91 27.84-9.86ZM48.70-3.52L48.70-3.52L48.70-3.52Q46.72 1.28 40.38 1.28L40.38 1.28L40.38 1.28Q37.12 1.28 35.07-0.96L35.07-0.96L35.07-0.96Q33.34-2.94 33.34-4.93L33.34-4.93L33.34-4.93Q33.34-10.11 35.71-20.22L35.71-20.22L38.08-32.64L51.07-33.92L47.17-13.70L47.17-13.70Q46.08-8.96 46.08-7.30L46.08-7.30L46.08-7.30Q46.08-3.65 48.70-3.52ZM39.23-41.54L39.23-41.54L39.23-41.54Q39.23-44.03 41.31-45.38L41.31-45.38L41.31-45.38Q43.39-46.72 46.40-46.72L46.40-46.72L46.40-46.72Q49.41-46.72 51.23-45.38L51.23-45.38L51.23-45.38Q53.06-44.03 53.06-41.54L53.06-41.54L53.06-41.54Q53.06-39.04 51.04-37.76L51.04-37.76L51.04-37.76Q49.02-36.48 46.02-36.48L46.02-36.48L46.02-36.48Q43.01-36.48 41.12-37.76L41.12-37.76L41.12-37.76Q39.23-39.04 39.23-41.54ZM81.22 1.28L81.22 1.28L81.22 1.28Q73.47 1.28 73.47-4.74L73.47-4.74L73.47-4.74Q73.54-6.40 74.05-9.22L74.05-9.22L75.20-15.10L75.20-15.10Q76.93-23.42 76.93-25.28L76.93-25.28L76.93-25.28Q76.93-28.99 74.75-28.99L74.75-28.99L74.75-28.99Q71.10-28.99 69.18-19.46L69.18-19.46L65.41 0L52.54 1.28L59.20-32.70L69.70-33.92L68.67-27.65L68.67-27.65Q71.68-33.92 80.90-33.92L80.90-33.92L80.90-33.92Q85.38-33.92 87.26-32.03L87.26-32.03L87.26-32.03Q89.15-30.14 89.15-25.92L89.15-25.92L89.15-25.92Q89.15-21.95 87.10-12.67L87.10-12.67L87.10-12.67Q86.14-8.51 86.14-6.94L86.14-6.94L86.14-6.94Q86.14-5.38 87.01-4.48L87.01-4.48L87.01-4.48Q87.87-3.58 89.15-3.46L89.15-3.46L89.15-3.46Q88.51-1.28 86.30 0L86.30 0L86.30 0Q84.10 1.28 81.22 1.28ZM110.78-30.34L110.78-30.34L110.78-30.34Q114.24-33.92 121.54-33.92L121.54-33.92L121.54-33.92Q125.57-33.92 127.78-31.78L127.78-31.78L127.78-31.78Q129.98-29.63 129.98-25.70L129.98-25.70L129.98-25.70Q129.98-21.76 127.78-18.98L127.78-18.98L127.78-18.98Q125.57-16.19 121.47-15.04L121.47-15.04L121.47-15.04Q121.79-13.76 122.24-12.42L122.24-12.42L123.14-9.86L123.14-9.86Q124.35-6.59 125.31-5.44L125.31-5.44L125.31-5.44Q126.27-4.29 127.55-3.90L127.55-3.90L127.55-3.90Q126.85-1.28 124.29 0.13L124.29 0.13L124.29 0.13Q122.24 1.28 119.42 1.28L119.42 1.28L119.42 1.28Q111.17 1.28 110.08-11.46L110.08-11.46L110.08-11.46Q109.89-13.25 109.89-15.04L109.89-15.04L109.89-15.04Q113.09-15.94 115.33-18.94L115.33-18.94L115.33-18.94Q117.57-21.95 117.57-25.47L117.57-25.47L117.57-25.47Q117.57-28.99 115.07-28.99L115.07-28.99L115.07-28.99Q113.28-28.99 111.87-27.01L111.87-27.01L111.87-27.01Q110.46-25.02 109.82-21.63L109.82-21.63L105.60 0L92.67 1.28L101.63-44.80L114.50-46.08L113.02-38.46L113.02-38.46Q112.06-33.09 110.78-30.34ZM172.86-9.86L172.86-9.86L172.86-9.86Q174.08-8.32 174.08-5.34L174.08-5.34L174.08-5.34Q174.08-2.37 171.81-0.54L171.81-0.54L171.81-0.54Q169.54 1.28 165.57 1.28L165.57 1.28L165.57 1.28Q163.26 1.28 159.68 0.77L159.68 0.77L159.68 0.77Q152.64-0.32 150.62-0.32L150.62-0.32L150.62-0.32Q148.61-0.32 147.78-0.22L147.78-0.22L147.78-0.22Q146.94-0.13 145.60 0L145.60 0L153.34-42.24L167.36-42.24L160.96-7.04L160.96-7.04Q161.79-6.91 162.56-6.91L162.56-6.91L164.16-6.91L164.16-6.91Q169.54-6.91 172.86-9.86ZM192.32 1.28L192.32 1.28L192.32 1.28Q178.24 1.28 178.24-11.97L178.24-11.97L178.24-11.97Q178.24-21.38 183.42-27.46L183.42-27.46L183.42-27.46Q188.93-33.92 198.46-33.92L198.46-33.92L198.46-33.92Q205.38-33.92 208.90-30.72L208.90-30.72L208.90-30.72Q212.42-27.52 212.42-20.80L212.42-20.80L212.42-20.80Q212.42-10.56 206.91-4.61L206.91-4.61L206.91-4.61Q201.54 1.28 192.32 1.28ZM193.98-26.56L193.98-26.56L193.98-26.56Q193.22-24.83 192.61-22.24L192.61-22.24L192.61-22.24Q192-19.65 191.23-15.55L191.23-15.55L191.23-15.55Q190.46-11.46 190.46-6.40L190.46-6.40L190.46-6.40Q190.46-4.74 191.01-3.65L191.01-3.65L191.01-3.65Q191.55-2.56 193.02-2.56L193.02-2.56L193.02-2.56Q194.50-2.56 195.42-3.26L195.42-3.26L195.42-3.26Q196.35-3.97 197.06-5.63L197.06-5.63L197.06-5.63Q198.34-8.58 199.36-14.05L199.36-14.05L199.36-14.05Q200.38-19.52 200.48-21.89L200.48-21.89L200.48-21.89Q200.58-24.26 200.58-26.02L200.58-26.02L200.58-26.02Q200.58-27.78 200.06-28.93L200.06-28.93L200.06-28.93Q199.55-30.08 198.11-30.08L198.11-30.08L198.11-30.08Q196.67-30.08 195.71-29.18L195.71-29.18L195.71-29.18Q194.75-28.29 193.98-26.56ZM247.62-26.62L247.62-26.62L247.62-26.62Q247.62-23.94 245.38-22.27L245.38-22.27L245.38-22.27Q243.14-20.61 239.49-20.61L239.49-20.61L239.49-20.61Q237.95-20.61 237.06-21.06L237.06-21.06L237.06-21.06Q237.76-22.72 237.98-24.80L237.98-24.80L237.98-24.80Q238.21-26.88 238.21-27.46L238.21-27.46L238.21-27.46Q238.21-30.14 236.35-30.14L236.35-30.14L236.35-30.14Q235.07-30.14 233.63-28.54L233.63-28.54L233.63-28.54Q232.19-26.94 230.98-24.45L230.98-24.45L230.98-24.45Q228.29-18.69 228.29-12.86L228.29-12.86L228.29-12.86Q228.29-9.66 229.50-8.22L229.50-8.22L229.50-8.22Q230.72-6.78 233.41-6.78L233.41-6.78L233.41-6.78Q237.12-6.78 240.06-9.86L240.06-9.86L240.06-9.86Q240.90-10.82 241.34-11.90L241.34-11.90L241.34-11.90Q243.78-10.62 243.78-7.10L243.78-7.10L243.78-7.10Q243.78-3.52 239.81-1.15L239.81-1.15L239.81-1.15Q235.71 1.28 229.18 1.28L229.18 1.28L229.18 1.28Q216.19 1.28 216.19-12.48L216.19-12.48L216.19-12.48Q216.19-22.53 221.89-28.29L221.89-28.29L221.89-28.29Q227.39-33.92 237.50-33.92L237.50-33.92L237.50-33.92Q247.62-33.92 247.62-26.62ZM265.86-30.34L265.86-30.34L265.86-30.34Q269.31-33.92 276.61-33.92L276.61-33.92L276.61-33.92Q280.64-33.92 282.85-31.78L282.85-31.78L282.85-31.78Q285.06-29.63 285.06-25.70L285.06-25.70L285.06-25.70Q285.06-21.76 282.85-18.98L282.85-18.98L282.85-18.98Q280.64-16.19 276.54-15.04L276.54-15.04L276.54-15.04Q276.86-13.76 277.31-12.42L277.31-12.42L278.21-9.86L278.21-9.86Q279.42-6.59 280.38-5.44L280.38-5.44L280.38-5.44Q281.34-4.29 282.62-3.90L282.62-3.90L282.62-3.90Q281.92-1.28 279.36 0.13L279.36 0.13L279.36 0.13Q277.31 1.28 274.50 1.28L274.50 1.28L274.50 1.28Q266.24 1.28 265.15-11.46L265.15-11.46L265.15-11.46Q264.96-13.25 264.96-15.04L264.96-15.04L264.96-15.04Q268.16-15.94 270.40-18.94L270.40-18.94L270.40-18.94Q272.64-21.95 272.64-25.47L272.64-25.47L272.64-25.47Q272.64-28.99 270.14-28.99L270.14-28.99L270.14-28.99Q268.35-28.99 266.94-27.01L266.94-27.01L266.94-27.01Q265.54-25.02 264.90-21.63L264.90-21.63L260.67 0L247.74 1.28L256.70-44.80L269.57-46.08L268.10-38.46L268.10-38.46Q267.14-33.09 265.86-30.34Z" fill="url(#editing-shiny-gradient)"></path></g></g><g filter="url(#editing-shiny2)"><g transform="translate(107.17999452352524, 99)"><path d="M27.84-9.86L27.84-9.86L27.84-9.86Q29.06-8.32 29.06-5.34L29.06-5.34L29.06-5.34Q29.06-2.37 26.78-0.54L26.78-0.54L26.78-0.54Q24.51 1.28 20.54 1.28L20.54 1.28L20.54 1.28Q18.24 1.28 14.66 0.77L14.66 0.77L14.66 0.77Q7.62-0.32 5.60-0.32L5.60-0.32L5.60-0.32Q3.58-0.32 2.75-0.22L2.75-0.22L2.75-0.22Q1.92-0.13 0.58 0L0.58 0L8.32-42.24L22.34-42.24L15.94-7.04L15.94-7.04Q16.77-6.91 17.54-6.91L17.54-6.91L19.14-6.91L19.14-6.91Q24.51-6.91 27.84-9.86ZM48.70-3.52L48.70-3.52L48.70-3.52Q46.72 1.28 40.38 1.28L40.38 1.28L40.38 1.28Q37.12 1.28 35.07-0.96L35.07-0.96L35.07-0.96Q33.34-2.94 33.34-4.93L33.34-4.93L33.34-4.93Q33.34-10.11 35.71-20.22L35.71-20.22L38.08-32.64L51.07-33.92L47.17-13.70L47.17-13.70Q46.08-8.96 46.08-7.30L46.08-7.30L46.08-7.30Q46.08-3.65 48.70-3.52ZM39.23-41.54L39.23-41.54L39.23-41.54Q39.23-44.03 41.31-45.38L41.31-45.38L41.31-45.38Q43.39-46.72 46.40-46.72L46.40-46.72L46.40-46.72Q49.41-46.72 51.23-45.38L51.23-45.38L51.23-45.38Q53.06-44.03 53.06-41.54L53.06-41.54L53.06-41.54Q53.06-39.04 51.04-37.76L51.04-37.76L51.04-37.76Q49.02-36.48 46.02-36.48L46.02-36.48L46.02-36.48Q43.01-36.48 41.12-37.76L41.12-37.76L41.12-37.76Q39.23-39.04 39.23-41.54ZM81.22 1.28L81.22 1.28L81.22 1.28Q73.47 1.28 73.47-4.74L73.47-4.74L73.47-4.74Q73.54-6.40 74.05-9.22L74.05-9.22L75.20-15.10L75.20-15.10Q76.93-23.42 76.93-25.28L76.93-25.28L76.93-25.28Q76.93-28.99 74.75-28.99L74.75-28.99L74.75-28.99Q71.10-28.99 69.18-19.46L69.18-19.46L65.41 0L52.54 1.28L59.20-32.70L69.70-33.92L68.67-27.65L68.67-27.65Q71.68-33.92 80.90-33.92L80.90-33.92L80.90-33.92Q85.38-33.92 87.26-32.03L87.26-32.03L87.26-32.03Q89.15-30.14 89.15-25.92L89.15-25.92L89.15-25.92Q89.15-21.95 87.10-12.67L87.10-12.67L87.10-12.67Q86.14-8.51 86.14-6.94L86.14-6.94L86.14-6.94Q86.14-5.38 87.01-4.48L87.01-4.48L87.01-4.48Q87.87-3.58 89.15-3.46L89.15-3.46L89.15-3.46Q88.51-1.28 86.30 0L86.30 0L86.30 0Q84.10 1.28 81.22 1.28ZM110.78-30.34L110.78-30.34L110.78-30.34Q114.24-33.92 121.54-33.92L121.54-33.92L121.54-33.92Q125.57-33.92 127.78-31.78L127.78-31.78L127.78-31.78Q129.98-29.63 129.98-25.70L129.98-25.70L129.98-25.70Q129.98-21.76 127.78-18.98L127.78-18.98L127.78-18.98Q125.57-16.19 121.47-15.04L121.47-15.04L121.47-15.04Q121.79-13.76 122.24-12.42L122.24-12.42L123.14-9.86L123.14-9.86Q124.35-6.59 125.31-5.44L125.31-5.44L125.31-5.44Q126.27-4.29 127.55-3.90L127.55-3.90L127.55-3.90Q126.85-1.28 124.29 0.13L124.29 0.13L124.29 0.13Q122.24 1.28 119.42 1.28L119.42 1.28L119.42 1.28Q111.17 1.28 110.08-11.46L110.08-11.46L110.08-11.46Q109.89-13.25 109.89-15.04L109.89-15.04L109.89-15.04Q113.09-15.94 115.33-18.94L115.33-18.94L115.33-18.94Q117.57-21.95 117.57-25.47L117.57-25.47L117.57-25.47Q117.57-28.99 115.07-28.99L115.07-28.99L115.07-28.99Q113.28-28.99 111.87-27.01L111.87-27.01L111.87-27.01Q110.46-25.02 109.82-21.63L109.82-21.63L105.60 0L92.67 1.28L101.63-44.80L114.50-46.08L113.02-38.46L113.02-38.46Q112.06-33.09 110.78-30.34ZM172.86-9.86L172.86-9.86L172.86-9.86Q174.08-8.32 174.08-5.34L174.08-5.34L174.08-5.34Q174.08-2.37 171.81-0.54L171.81-0.54L171.81-0.54Q169.54 1.28 165.57 1.28L165.57 1.28L165.57 1.28Q163.26 1.28 159.68 0.77L159.68 0.77L159.68 0.77Q152.64-0.32 150.62-0.32L150.62-0.32L150.62-0.32Q148.61-0.32 147.78-0.22L147.78-0.22L147.78-0.22Q146.94-0.13 145.60 0L145.60 0L153.34-42.24L167.36-42.24L160.96-7.04L160.96-7.04Q161.79-6.91 162.56-6.91L162.56-6.91L164.16-6.91L164.16-6.91Q169.54-6.91 172.86-9.86ZM192.32 1.28L192.32 1.28L192.32 1.28Q178.24 1.28 178.24-11.97L178.24-11.97L178.24-11.97Q178.24-21.38 183.42-27.46L183.42-27.46L183.42-27.46Q188.93-33.92 198.46-33.92L198.46-33.92L198.46-33.92Q205.38-33.92 208.90-30.72L208.90-30.72L208.90-30.72Q212.42-27.52 212.42-20.80L212.42-20.80L212.42-20.80Q212.42-10.56 206.91-4.61L206.91-4.61L206.91-4.61Q201.54 1.28 192.32 1.28ZM193.98-26.56L193.98-26.56L193.98-26.56Q193.22-24.83 192.61-22.24L192.61-22.24L192.61-22.24Q192-19.65 191.23-15.55L191.23-15.55L191.23-15.55Q190.46-11.46 190.46-6.40L190.46-6.40L190.46-6.40Q190.46-4.74 191.01-3.65L191.01-3.65L191.01-3.65Q191.55-2.56 193.02-2.56L193.02-2.56L193.02-2.56Q194.50-2.56 195.42-3.26L195.42-3.26L195.42-3.26Q196.35-3.97 197.06-5.63L197.06-5.63L197.06-5.63Q198.34-8.58 199.36-14.05L199.36-14.05L199.36-14.05Q200.38-19.52 200.48-21.89L200.48-21.89L200.48-21.89Q200.58-24.26 200.58-26.02L200.58-26.02L200.58-26.02Q200.58-27.78 200.06-28.93L200.06-28.93L200.06-28.93Q199.55-30.08 198.11-30.08L198.11-30.08L198.11-30.08Q196.67-30.08 195.71-29.18L195.71-29.18L195.71-29.18Q194.75-28.29 193.98-26.56ZM247.62-26.62L247.62-26.62L247.62-26.62Q247.62-23.94 245.38-22.27L245.38-22.27L245.38-22.27Q243.14-20.61 239.49-20.61L239.49-20.61L239.49-20.61Q237.95-20.61 237.06-21.06L237.06-21.06L237.06-21.06Q237.76-22.72 237.98-24.80L237.98-24.80L237.98-24.80Q238.21-26.88 238.21-27.46L238.21-27.46L238.21-27.46Q238.21-30.14 236.35-30.14L236.35-30.14L236.35-30.14Q235.07-30.14 233.63-28.54L233.63-28.54L233.63-28.54Q232.19-26.94 230.98-24.45L230.98-24.45L230.98-24.45Q228.29-18.69 228.29-12.86L228.29-12.86L228.29-12.86Q228.29-9.66 229.50-8.22L229.50-8.22L229.50-8.22Q230.72-6.78 233.41-6.78L233.41-6.78L233.41-6.78Q237.12-6.78 240.06-9.86L240.06-9.86L240.06-9.86Q240.90-10.82 241.34-11.90L241.34-11.90L241.34-11.90Q243.78-10.62 243.78-7.10L243.78-7.10L243.78-7.10Q243.78-3.52 239.81-1.15L239.81-1.15L239.81-1.15Q235.71 1.28 229.18 1.28L229.18 1.28L229.18 1.28Q216.19 1.28 216.19-12.48L216.19-12.48L216.19-12.48Q216.19-22.53 221.89-28.29L221.89-28.29L221.89-28.29Q227.39-33.92 237.50-33.92L237.50-33.92L237.50-33.92Q247.62-33.92 247.62-26.62ZM265.86-30.34L265.86-30.34L265.86-30.34Q269.31-33.92 276.61-33.92L276.61-33.92L276.61-33.92Q280.64-33.92 282.85-31.78L282.85-31.78L282.85-31.78Q285.06-29.63 285.06-25.70L285.06-25.70L285.06-25.70Q285.06-21.76 282.85-18.98L282.85-18.98L282.85-18.98Q280.64-16.19 276.54-15.04L276.54-15.04L276.54-15.04Q276.86-13.76 277.31-12.42L277.31-12.42L278.21-9.86L278.21-9.86Q279.42-6.59 280.38-5.44L280.38-5.44L280.38-5.44Q281.34-4.29 282.62-3.90L282.62-3.90L282.62-3.90Q281.92-1.28 279.36 0.13L279.36 0.13L279.36 0.13Q277.31 1.28 274.50 1.28L274.50 1.28L274.50 1.28Q266.24 1.28 265.15-11.46L265.15-11.46L265.15-11.46Q264.96-13.25 264.96-15.04L264.96-15.04L264.96-15.04Q268.16-15.94 270.40-18.94L270.40-18.94L270.40-18.94Q272.64-21.95 272.64-25.47L272.64-25.47L272.64-25.47Q272.64-28.99 270.14-28.99L270.14-28.99L270.14-28.99Q268.35-28.99 266.94-27.01L266.94-27.01L266.94-27.01Q265.54-25.02 264.90-21.63L264.90-21.63L260.67 0L247.74 1.28L256.70-44.80L269.57-46.08L268.10-38.46L268.10-38.46Q267.14-33.09 265.86-30.34Z" fill="url(#editing-shiny-gradient2)"></path></g></g><style>text {
  font-size: 64px;
  font-family: Arial Black;
  dominant-baseline: central;
  text-anchor: middle;
}</style></svg>