<svg xmlns="http://www.w3.org/2000/svg" width="380.17" height="35" viewBox="0 0 380.17 35"><rect class="svg__rect" x="0" y="0" width="190.23" height="35" fill="#EA4560"/><rect class="svg__rect" x="188.23" y="0" width="191.94000000000003" height="35" fill="#3BC4F3"/><path class="svg__text" d="M15.69 22L14.22 22L14.22 13.47L16.14 13.47L18.60 20.01L21.06 13.47L22.97 13.47L22.97 22L21.49 22L21.49 19.19L21.64 15.43L19.12 22L18.06 22L15.55 15.43L15.69 19.19L15.69 22ZM28.49 22L26.95 22L30.17 13.47L31.50 13.47L34.73 22L33.18 22L32.49 20.01L29.18 20.01L28.49 22ZM30.83 15.28L29.60 18.82L32.07 18.82L30.83 15.28ZM41.14 22L38.69 22L38.69 13.47L41.21 13.47Q42.34 13.47 43.21 13.97Q44.09 14.48 44.57 15.40Q45.05 16.33 45.05 17.52L45.05 17.52L45.05 17.95Q45.05 19.16 44.57 20.08Q44.08 21.00 43.19 21.50Q42.30 22 41.14 22L41.14 22ZM40.17 14.66L40.17 20.82L41.14 20.82Q42.30 20.82 42.93 20.09Q43.55 19.36 43.56 17.99L43.56 17.99L43.56 17.52Q43.56 16.13 42.96 15.40Q42.35 14.66 41.21 14.66L41.21 14.66L40.17 14.66ZM55.09 22L49.51 22L49.51 13.47L55.05 13.47L55.05 14.66L51.00 14.66L51.00 17.02L54.50 17.02L54.50 18.19L51.00 18.19L51.00 20.82L55.09 20.82L55.09 22ZM66.65 22L64.68 13.47L66.15 13.47L67.47 19.88L69.10 13.47L70.34 13.47L71.96 19.89L73.27 13.47L74.74 13.47L72.77 22L71.35 22L69.73 15.77L68.07 22L66.65 22ZM80.38 22L78.90 22L78.90 13.47L80.38 13.47L80.38 22ZM86.87 14.66L84.23 14.66L84.23 13.47L91.00 13.47L91.00 14.66L88.34 14.66L88.34 22L86.87 22L86.87 14.66ZM96.24 22L94.75 22L94.75 13.47L96.24 13.47L96.24 17.02L100.05 17.02L100.05 13.47L101.53 13.47L101.53 22L100.05 22L100.05 18.21L96.24 18.21L96.24 22ZM117.60 22L112.24 22L112.24 13.47L113.73 13.47L113.73 20.82L117.60 20.82L117.60 22ZM121.46 18.00L121.46 18.00L121.46 17.52Q121.46 16.28 121.90 15.32Q122.34 14.37 123.15 13.86Q123.95 13.35 124.99 13.35Q126.04 13.35 126.84 13.85Q127.65 14.35 128.09 15.29Q128.53 16.23 128.53 17.48L128.53 17.48L128.53 17.96Q128.53 19.21 128.10 20.16Q127.67 21.10 126.86 21.61Q126.06 22.12 125.01 22.12L125.01 22.12Q123.97 22.12 123.16 21.61Q122.35 21.10 121.90 20.17Q121.46 19.23 121.46 18.00ZM122.94 17.46L122.94 17.96Q122.94 19.36 123.49 20.13Q124.03 20.90 125.01 20.90L125.01 20.90Q125.99 20.90 126.52 20.15Q127.05 19.40 127.05 17.96L127.05 17.96L127.05 17.51Q127.05 16.09 126.52 15.34Q125.98 14.58 124.99 14.58L124.99 14.58Q124.03 14.58 123.49 15.33Q122.95 16.09 122.94 17.46L122.94 17.46ZM135.30 22L132.24 13.47L133.86 13.47L136.00 20.14L138.17 13.47L139.80 13.47L136.73 22L135.30 22ZM149.33 22L143.75 22L143.75 13.47L149.29 13.47L149.29 14.66L145.23 14.66L145.23 17.02L148.74 17.02L148.74 18.19L145.23 18.19L145.23 20.82L149.33 20.82L149.33 22ZM162.61 22L159.50 22L159.50 13.47L162.42 13.47Q163.87 13.47 164.63 14.05Q165.38 14.63 165.38 15.78L165.38 15.78Q165.38 16.36 165.07 16.83Q164.75 17.30 164.14 17.56L164.14 17.56Q164.83 17.75 165.21 18.26Q165.59 18.78 165.59 19.51L165.59 19.51Q165.59 20.71 164.82 21.36Q164.05 22 162.61 22L162.61 22ZM160.98 18.15L160.98 20.82L162.63 20.82Q163.33 20.82 163.72 20.47Q164.11 20.13 164.11 19.51L164.11 19.51Q164.11 18.18 162.75 18.15L162.75 18.15L160.98 18.15ZM160.98 14.66L160.98 17.06L162.44 17.06Q163.13 17.06 163.52 16.75Q163.91 16.43 163.91 15.86L163.91 15.86Q163.91 15.23 163.55 14.95Q163.19 14.66 162.42 14.66L162.42 14.66L160.98 14.66ZM172.10 18.86L169.23 13.47L170.88 13.47L172.84 17.51L174.81 13.47L176.45 13.47L173.59 18.86L173.59 22L172.10 22L172.10 18.86Z" fill="#FFFFFF"/><path class="svg__text" d="M204.77 22L202.42 22L202.42 13.60L204.77 13.60L204.77 17.09L208.03 13.60L210.64 13.60L207.21 17.32L210.82 22L208.06 22L205.66 18.95L204.77 19.90L204.77 22ZM217.12 22L214.93 22L214.93 13.60L216.88 13.60L219.84 18.45L222.72 13.60L224.67 13.60L224.70 22L222.52 22L222.49 17.55L220.33 21.17L219.28 21.17L217.12 17.67L217.12 22ZM238.25 22L235.82 22L239.53 13.60L241.87 13.60L245.59 22L243.12 22L242.46 20.37L238.91 20.37L238.25 22ZM240.69 15.93L239.60 18.61L241.76 18.61L240.69 15.93ZM251.94 22L249.74 22L249.74 13.60L251.70 13.60L254.65 18.45L257.54 13.60L259.49 13.60L259.51 22L257.33 22L257.31 17.55L255.15 21.17L254.09 21.17L251.94 17.67L251.94 22ZM267.05 22L264.67 22L264.67 13.60L267.05 13.60L267.05 22ZM274.56 22L272.23 22L272.23 13.60L274.18 13.60L277.89 18.07L277.89 13.60L280.22 13.60L280.22 22L278.27 22L274.56 17.52L274.56 22ZM285.31 18.26L285.31 18.26L285.31 13.60L287.69 13.60L287.69 18.19Q287.69 20.20 289.28 20.20L289.28 20.20Q290.87 20.20 290.87 18.19L290.87 18.19L290.87 13.60L293.21 13.60L293.21 18.26Q293.21 20.13 292.17 21.15Q291.13 22.17 289.26 22.17L289.26 22.17Q287.38 22.17 286.35 21.15Q285.31 20.13 285.31 18.26ZM304.68 22L298.29 22L298.29 13.60L300.67 13.60L300.67 20.11L304.68 20.11L304.68 22ZM318.45 22L316.07 22L316.07 13.60L318.45 13.60L318.45 22ZM323.04 21.24L323.04 21.24L323.82 19.49Q324.38 19.86 325.12 20.09Q325.87 20.32 326.59 20.32L326.59 20.32Q327.96 20.32 327.96 19.64L327.96 19.64Q327.96 19.28 327.57 19.11Q327.18 18.93 326.31 18.74L326.31 18.74Q325.37 18.53 324.73 18.30Q324.09 18.06 323.64 17.55Q323.19 17.03 323.19 16.16L323.19 16.16Q323.19 15.39 323.60 14.77Q324.02 14.15 324.86 13.79Q325.69 13.43 326.90 13.43L326.90 13.43Q327.73 13.43 328.53 13.62Q329.34 13.80 329.95 14.17L329.95 14.17L329.22 15.93Q328.02 15.28 326.89 15.28L326.89 15.28Q326.18 15.28 325.86 15.49Q325.54 15.70 325.54 16.04L325.54 16.04Q325.54 16.37 325.92 16.54Q326.30 16.71 327.15 16.89L327.15 16.89Q328.11 17.10 328.74 17.33Q329.37 17.56 329.84 18.07Q330.30 18.58 330.30 19.46L330.30 19.46Q330.30 20.21 329.88 20.83Q329.46 21.44 328.62 21.80Q327.78 22.17 326.58 22.17L326.58 22.17Q325.56 22.17 324.60 21.92Q323.64 21.67 323.04 21.24ZM341.26 22L334.87 22L334.87 13.60L337.25 13.60L337.25 20.11L341.26 20.11L341.26 22ZM347.10 22L344.67 22L348.38 13.60L350.72 13.60L354.44 22L351.97 22L351.31 20.37L347.76 20.37L347.10 22ZM349.54 15.93L348.45 18.61L350.61 18.61L349.54 15.93ZM360.79 22L358.59 22L358.59 13.60L360.55 13.60L363.50 18.45L366.39 13.60L368.34 13.60L368.36 22L366.18 22L366.16 17.55L364.00 21.17L362.94 21.17L360.79 17.67L360.79 22Z" fill="#FFFFFF" x="201.23"/></svg>